<svg width="82" height="82" viewBox="0 0 82 82" fill="none" xmlns="http://www.w3.org/2000/svg">
  <path d="M82 27.1154V54.8846C82 69.861 69.8592 82 54.8805 82H27.1195C12.1408 82 0 69.861 0 54.8846V27.1154C0 12.139 12.1408 0 27.1195 0H54.8805C58.4956 0 61.9503 0.703174 65.0966 1.9985L53.5727 13.533C53.3382 13.7674 53.0175 13.8908 52.6967 13.8908H31.6353C31.3145 13.8908 30.9937 14.0265 30.7716 14.2485L13.9792 31.0384C13.7448 31.2728 13.6091 31.5812 13.6091 31.9142V49.1729C13.6091 49.8267 14.0903 50.2831 14.6332 50.3818C14.7936 50.4188 14.9663 50.4188 15.139 50.3695C15.3488 50.3201 15.5462 50.2215 15.7189 50.0487L18.5444 47.2237L30.8456 34.9243C31.0677 34.7023 31.3885 34.5666 31.7093 34.5666H46.6756C47.3542 34.5666 47.9094 35.1217 47.9094 35.8002V50.7519C47.9094 51.085 47.7737 51.3934 47.5516 51.6278L32.4249 66.7522C31.6476 67.5294 32.2028 68.8494 33.3009 68.8494H50.5621C50.8829 68.8494 51.2037 68.726 51.4382 68.4917L68.2305 51.7018C68.4526 51.4674 68.5883 51.159 68.5883 50.8259V29.7801C68.5883 29.6937 68.6007 29.6197 68.613 29.5333C68.65 29.373 68.7117 29.2249 68.7857 29.0892C68.8474 29.0275 68.8968 28.9535 68.9585 28.8918L80.2726 17.5794C80.7415 18.813 81.1116 20.0836 81.3954 21.3913C81.7902 23.2418 82 25.1539 82 27.1154Z" fill="#3287E1"/>
</svg>
