<svg width="282" height="82" viewBox="0 0 282 82" fill="none" xmlns="http://www.w3.org/2000/svg">
<g clip-path="url(#clip0_1850_11718)">
<path d="M82 27.1154V54.8846C82 69.861 69.8592 82 54.8805 82H27.1195C12.1408 82 0 69.861 0 54.8846V27.1154C0 12.139 12.1408 0 27.1195 0H54.8805C58.4956 0 61.9503 0.703174 65.0966 1.9985L53.5727 13.533C53.3382 13.7674 53.0175 13.8908 52.6967 13.8908H31.6353C31.3145 13.8908 30.9937 14.0265 30.7716 14.2485L13.9792 31.0384C13.7448 31.2728 13.6091 31.5812 13.6091 31.9142V49.1729C13.6091 49.8267 14.0903 50.2831 14.6332 50.3818C14.7936 50.4188 14.9663 50.4188 15.139 50.3695C15.3488 50.3201 15.5462 50.2215 15.7189 50.0487L18.5444 47.2237L30.8456 34.9243C31.0677 34.7023 31.3885 34.5666 31.7093 34.5666H46.6756C47.3542 34.5666 47.9094 35.1217 47.9094 35.8002V50.7519C47.9094 51.085 47.7737 51.3934 47.5516 51.6278L32.4249 66.7522C31.6476 67.5294 32.2028 68.8494 33.3009 68.8494H50.5621C50.8829 68.8494 51.2037 68.726 51.4382 68.4917L68.2305 51.7018C68.4526 51.4674 68.5883 51.159 68.5883 50.8259V29.7801C68.5883 29.6937 68.6007 29.6197 68.613 29.5333C68.65 29.373 68.7117 29.2249 68.7857 29.0892C68.8474 29.0275 68.8968 28.9535 68.9585 28.8918L80.2726 17.5794C80.7415 18.813 81.1116 20.0836 81.3954 21.3913C81.7902 23.2418 82 25.1539 82 27.1154Z" fill="#3287E1"/>
<path d="M82.0001 27.1154V49.0371L62.9128 68.1215C62.444 68.5903 61.8147 68.8494 61.1608 68.8494H50.5623C50.8831 68.8494 51.2038 68.726 51.4383 68.4916L68.2306 51.7018C68.4527 51.4674 68.5884 51.159 68.5884 50.8259V29.78C68.5884 29.6937 68.6008 29.6197 68.6131 29.5333C68.6501 29.3729 68.7118 29.2249 68.7858 29.0892C68.8475 29.0275 68.8969 28.9535 68.9586 28.8918L80.2728 17.5793C80.7416 18.813 81.1118 20.0836 81.3955 21.3913C81.7904 23.2418 82.0001 25.1539 82.0001 27.1154Z" fill="#213A60"/>
<path d="M47.9094 35.8002V41.3022H37.0888C36.4348 41.3022 35.8056 41.5613 35.3491 42.03L28.0202 49.3579C27.576 49.802 26.9714 50.061 26.3422 50.0857L15.1514 50.3818C15.3611 50.3324 15.5585 50.2337 15.7313 50.061L30.858 34.9366C31.0924 34.7022 31.4008 34.5789 31.7216 34.5789H46.6879C47.3665 34.5789 47.9218 35.134 47.9218 35.8125L47.9094 35.8002Z" fill="#213A60"/>
</g>
<g clip-path="url(#clip1_1850_11718)" transform="translate(0 13)">
<path d="M102 56H147.321V43.4227H114.574V34.2887H133.888V21.7113H114.574V12.5854H147.321V0H102V56Z" fill="black"/>
<path d="M262.742 0H240.073C229.441 0 220.815 8.62835 220.815 19.2633V36.7367C220.815 47.3717 229.441 56 240.073 56H262.742C273.374 56 282 47.3717 282 36.7367V19.2633C282 8.62835 273.382 0 262.742 0ZM269.426 33.791C269.426 39.1125 265.117 43.4227 259.797 43.4227H243.026C237.706 43.4227 233.397 39.1125 233.397 33.791V22.217C233.397 16.8955 237.706 12.5854 243.026 12.5854H259.797C265.117 12.5854 269.426 16.8955 269.426 22.217V33.791Z" fill="black"/>
<path d="M196.638 0H157.921V56H170.503V12.5854H193.693C197.24 12.5854 200.112 15.4588 200.112 19.0065V26.3265C200.112 29.8742 197.24 32.7476 193.693 32.7476H178.455L170.503 45.333H196.638C205.505 45.333 212.686 38.1413 212.686 29.2802V16.0527C212.686 7.19163 205.505 0 196.638 0Z" fill="black"/>
</g>
<defs>
<clipPath id="clip0_1850_11718">
<rect width="82" height="82" fill="white"/>
</clipPath>
<clipPath id="clip1_1850_11718">
<rect width="180" height="56" fill="white" transform="translate(102)"/>
</clipPath>
</defs>
</svg>
